<svg xmlns="http://www.w3.org/2000/svg" width="44.51" height="40.112" viewBox="0 0 44.51 40.112">
  <g id="Group_995" data-name="Group 995" transform="translate(812.772 -2085.991)">
    <path id="Path_4916" data-name="Path 4916" d="M44.51,183.363v21.725a2.524,2.524,0,0,1-2.523,2.523H2.523A2.524,2.524,0,0,1,0,205.088V183.363a2.512,2.512,0,0,1,.759-1.8H43.752A2.512,2.512,0,0,1,44.51,183.363Z" transform="translate(-812.772 1918.492)" fill="#0593fc"/>
    <g id="Group_993" data-name="Group 993" transform="translate(-782.671 2111.714)">
      <path id="Path_4917" data-name="Path 4917" d="M350.19,324.884a2.512,2.512,0,0,1-.95.949L336.308,312.92a.672.672,0,1,1,.949-.95Z" transform="translate(-336.111 -311.773)" fill="#0181fa"/>
    </g>
    <g id="Group_994" data-name="Group 994" transform="translate(-812.443 2111.714)">
      <path id="Path_4918" data-name="Path 4918" d="M17.562,312.919,4.63,325.834a2.512,2.512,0,0,1-.95-.949l12.933-12.915a.672.672,0,1,1,.949.95Z" transform="translate(-3.68 -311.772)" fill="#0181fa"/>
    </g>
    <path id="Path_4919" data-name="Path 4919" d="M450.025,181.564H448a2.512,2.512,0,0,1,.759,1.8v21.725a2.523,2.523,0,0,1-2.523,2.523h2.023a2.523,2.523,0,0,0,2.523-2.523V183.367A2.512,2.512,0,0,0,450.025,181.564Z" transform="translate(-1219.045 1918.489)" fill="#0181fa"/>
    <path id="Path_4920" data-name="Path 4920" d="M51.463,174.244,33.391,191.416a4.972,4.972,0,0,1-6.849,0L8.47,174.244a2.511,2.511,0,0,1,1.764-.72H49.7a2.511,2.511,0,0,1,1.764.72Z" transform="translate(-820.484 1925.808)" fill="#eaf6ff"/>
    <path id="Path_4921" data-name="Path 4921" d="M127.945,173.524a10.952,10.952,0,0,1-21.375,0Z" transform="translate(-909.798 1925.808)" fill="#c8effe"/>
    <path id="Path_4922" data-name="Path 4922" d="M257.948,173.524h-2.023a2.519,2.519,0,0,1,.876.156.714.714,0,0,1,.234,1.186l-17.417,16.55a4.951,4.951,0,0,1-2.413,1.263,4.967,4.967,0,0,0,4.436-1.263l18.072-17.172A2.512,2.512,0,0,0,257.948,173.524Z" transform="translate(-1028.733 1925.808)" fill="#c8effe"/>
    <path id="Path_4923" data-name="Path 4923" d="M225.11,344.886h-1.57a1.593,1.593,0,0,1-1.593-1.593v-5.137a1.593,1.593,0,0,1,1.593-1.593h1.57a1.593,1.593,0,0,1,1.593,1.593v5.137A1.593,1.593,0,0,1,225.11,344.886Z" transform="translate(-1014.842 1777.371)" fill="#99e6fc"/>
    <path id="Path_4924" data-name="Path 4924" d="M245.706,338.157v5.137a1.593,1.593,0,0,1-1.592,1.593h-1.142a1.587,1.587,0,0,0,.711-1.325v-5.585a1.587,1.587,0,0,0-.863-1.414h1.294A1.592,1.592,0,0,1,245.706,338.157Z" transform="translate(-1033.846 1777.37)" fill="#62dbfb"/>
    <circle id="Ellipse_8" data-name="Ellipse 8" cx="11" cy="11" r="11" transform="translate(-801.517 2086.103)" fill="#4fc123"/>
    <path id="Path_4925" data-name="Path 4925" d="M238.215,24.556c-.341,0-.678.016-1.012.047a10.95,10.95,0,0,1,0,21.806c.333.031.671.047,1.012.047a10.95,10.95,0,1,0,0-21.9Z" transform="translate(-1028.732 2061.435)" fill="#47a920"/>
    <path id="Path_4926" data-name="Path 4926" d="M183.35,92.146l-1.566-1.566a1.023,1.023,0,0,0-1.447,0l-1.358,1.358a1.023,1.023,0,0,0,0,1.447l3.479,3.479a1.846,1.846,0,0,0,2.611,0l6.8-6.8a1.023,1.023,0,0,0,0-1.447l-1.258-1.258a1.023,1.023,0,0,0-1.447,0l-4.79,4.79a.726.726,0,0,1-1.027,0Z" transform="translate(-975.45 2004.532)" fill="#d1f19e"/>
    <path id="Path_4927" data-name="Path 4927" d="M222.171,88.613l-1.258-1.258a1.023,1.023,0,0,0-1.447,0l-.418.418a1.019,1.019,0,0,1,.529.281l.57.558a1.023,1.023,0,0,1,0,1.447l-5.927,5.732a1.845,1.845,0,0,1-2.261.272l.8.8a1.846,1.846,0,0,0,2.611,0l6.8-6.8a1.023,1.023,0,0,0,0-1.447Z" transform="translate(-1005.75 2004.532)" fill="#bbec6c"/>
  </g>
</svg>
