<svg xmlns="http://www.w3.org/2000/svg" width="18.988" height="18.999" viewBox="0 0 18.988 18.999">
  <g id="logout-svgrepo-com" transform="translate(20.99 20.999) rotate(180)">
    <path id="Path_4728" data-name="Path 4728" d="M9,6.94v9.11A4.593,4.593,0,0,0,13.94,21H16.4a4.59,4.59,0,0,0,4.94-4.94V6.94A4.578,4.578,0,0,0,16.41,2H13.94A4.59,4.59,0,0,0,9,6.94Z" transform="translate(-0.35)" fill="#fff"/>
    <path id="Path_4729" data-name="Path 4729" d="M5.391,8.109,2.209,11.291a.717.717,0,0,0,0,1.007l3.182,3.182A.712.712,0,0,0,6.4,14.474L4.431,12.507H14.587a.712.712,0,1,0,0-1.425H4.431L6.4,9.116a.7.7,0,0,0,.209-.5.689.689,0,0,0-.209-.5A.7.7,0,0,0,5.391,8.109Z" transform="translate(0 -0.295)" fill="#2465e9"/>
  </g>
</svg>
