<svg data-name="vuesax/linear/edit" xmlns="http://www.w3.org/2000/svg" width="20.289" height="20.289" viewBox="0 0 20.289 20.289">
    <path d="M7.608 0h-1.69C1.691 0 0 1.691 0 5.918v5.072c0 4.227 1.691 5.918 5.918 5.918h5.072c4.227 0 5.918-1.691 5.918-5.918V9.3" transform="translate(1.691 1.691)" style="stroke:#2465e9;stroke-linecap:round;stroke-linejoin:round;stroke-width:1.5px;fill:none"/>
    <path data-name="Vector" d="M7.6 1.075.939 7.736a2.293 2.293 0 0 0-.558 1.116L.018 11.4a1.2 1.2 0 0 0 1.437 1.437L4 12.47a2.368 2.368 0 0 0 1.116-.558l6.661-6.661c1.15-1.15 1.691-2.485 0-4.176s-3.027-1.15-4.177 0z" transform="translate(5.959 1.478)" style="stroke:#2465e9;stroke-linecap:round;stroke-linejoin:round;stroke-width:1.5px;fill:none"/>
    <path data-name="Vector" d="M0 0a6.04 6.04 0 0 0 4.176 4.176" transform="translate(12.604 3.508)" style="stroke:#2465e9;stroke-linecap:round;stroke-linejoin:round;stroke-width:1.5px;fill:none"/>
</svg>
